# xmcd CD database file
#
# Track frame offsets:
#	150
#	26548
#	41908
#	55813
#	73955
#	91596
#	114191
#	127782
#	140065
#	168369
#	179991
#	205791
#
# Disc length: 2936 seconds
#
# Revision: 0
# Processed by: cddbd v1.5PL3 Copyright (c) Steve Scherf et al.
# Submitted via: CDex 1.50beta9
#
DISCID=a90b760c
DTITLE=Mia Znidaric - Preblizu, Predalec
DYEAR=2004
DGENRE=Jazz
TTITLE0=Sprehod opolnoci (walkin' after midnight)
TTITLE1=Cas
TTITLE2=Boljse v roki je zlato (Diamonds are a girl's best friend)
TTITLE3=Srce (Comes love)
TTITLE4=Megla nad Ljubljano
TTITLE5=Lucka
TTITLE6=Mia Znidaric - A si ti al' nisi ti moj ljubi (Is you is or is you ain't my baby)
TTITLE7=Jersey bounce
TTITLE8=Noc
TTITLE9=Preblizu, predalec (too close for comfort)
TTITLE10=Iskre
TTITLE11=Slike Pariza (April in Paris)
EXTD=YEAR: 2004
EXTT0=
EXTT1=
EXTT2=
EXTT3=
EXTT4=
EXTT5=
EXTT6=
EXTT7=
EXTT8=
EXTT9=
EXTT10=
EXTT11=
PLAYORDER=
